#!OML:ASF E:\CV Data\Top Level 1\Subject 1\Session 1\player.ASF
:FULLY-SPECIFIED
:DEGREES
469
root 0.101438 16.6186 -6.61312 -80.2492 79.3054 -78.942
lowerback 6.35682 -0.310141 0.472937
upperback -0.336915 -0.406078 -0.864957
thorax -3.92374 -0.217705 -1.12035
lowerneck 7.94061 -17.1082 -18.3864
upperneck -33.2471 -18.9617 30.9708
head -5.55844 -10.1198 14.3622
rclavicle -4.44781e-015 0
rhumerus -14.5808 -18.4649 -42.2131
rradius 92.1477
rwrist 3.54593
rhand -31.7679 29.2547
rfingers 7.12502
rthumb -5.02465 -0.665722
lclavicle -4.44781e-015 0
lhumerus -44.5262 34.5308 36.5169
lradius 50.3738
lwrist 22.5349
lhand -27.2872 13.6751
lfingers 7.12502
lthumb -0.697513 43.6537
rfemur -11.7077 -1.23036 25.8623
rtibia 45.4889
rfoot -29.0547 -6.04614
rtoes -10.9302
lfemur -8.10767 0.19711 -1.36891
ltibia 43.9923
lfoot -27.096 8.87984
ltoes -12.8797
470
root 0.0906773 16.678 -6.56898 -79.8633 79.3623 -78.9643
lowerback 5.94424 -0.282804 0.470491
upperback -0.440126 -0.370069 -0.812844
thorax -3.79712 -0.199801 -1.06967
lowerneck 7.81052 -17.1728 -18.3605
upperneck -33.2777 -19.0215 30.9452
head -5.53701 -10.1403 14.3236
rclavicle -6.21202e-016 7.95139e-015
rhumerus -15.5586 -18.711 -44.5068
rradius 90.0407
rwrist -0.876467
rhand -27.9782 25.4227
rfingers 7.12502
rthumb -1.36487 -4.55271
lclavicle -6.21202e-016 7.95139e-015
lhumerus -46.3882 34.3424 38.7352
lradius 47.7352
lwrist 18.1102
lhand -26.1223 13.7658
lfingers 7.12502
lthumb 0.427637 43.7451
rfemur -11.8258 -1.67656 25.8314
rtibia 44.7416
rfoot -28.944 -5.58204
rtoes -11.5648
lfemur -8.04362 0.175108 -1.29475
ltibia 42.8923
lfoot -26.5571 8.65679
ltoes -12.6166
471
root 0.076774 16.7325 -6.52504 -79.5623 79.4461 -79.0439
lowerback 5.58482 -0.253695 0.499244
upperback -0.508119 -0.329413 -0.772368
thorax -3.66407 -0.179943 -1.04857
lowerneck 7.65145 -17.2546 -18.3101
upperneck -33.3436 -19.0853 30.9392
head -5.51991 -10.1646 14.2881
rclavicle 8.19987e-016 -9.54166e-015
rhumerus -16.1444 -19.3384 -46.4086
rradius 87.4856
rwrist -5.40805
rhand -24.7368 22.3523
rfingers 7.12502
rthumb 1.7658 -7.62018
lclavicle 8.19987e-016 -9.54166e-015
lhumerus -48.014 34.6585 40.6801
lradius 45.1489
lwrist 13.2087
lhand -24.4949 13.6111
lfingers 7.12502
lthumb 1.9994 43.5815
rfemur -11.9603 -2.15836 25.7738
rtibia 44.0804
rfoot -28.8896 -5.23192
rtoes -12.5405
lfemur -7.99321 0.102539 -1.25543
ltibia 41.8498
lfoot -26.0296 8.48818
ltoes -12.3762
472
root 0.0596622 16.7818 -6.48219 -79.3177 79.5398 -79.1419
lowerback 5.29909 -0.23765 0.559854
upperback -0.544755 -0.304086 -0.738734
thorax -3.54063 -0.168135 -1.05073
lowerneck 7.45662 -17.3313 -18.2101
upperneck -33.4287 -19.1149 30.961
head -5.51241 -10.1774 14.2592
rclavicle 1.19271e-015 -1.59028e-014
rhumerus -16.3029 -20.1609 -47.9398
rradius 84.5938
rwrist -10.1119
rhand -22.2789 20.5031
rfingers 7.12502
rthumb 4.13946 -9.43642
lclavicle 1.19271e-015 -1.59028e-014
lhumerus -49.4972 35.4465 42.2163
lradius 42.6657
lwrist 8.41112
lhand -22.7102 13.0619
lfingers 7.12502
lthumb 3.72295 43.0091
rfemur -12.1002 -2.65708 25.7072
rtibia 43.5032
rfoot -28.8668 -5.01635
rtoes -13.7026
lfemur -7.94915 -0.0474847 -1.24583
ltibia 40.8811
lfoot -25.5147 8.40947
ltoes -12.1231
473
root 0.0385102 16.8254 -6.43959 -79.1519 79.6259 -79.2885
lowerback 5.09962 -0.211059 0.670611
upperback -0.560537 -0.261274 -0.697255
thorax -3.44397 -0.148421 -1.07406
lowerneck 7.25268 -17.4246 -18.1029
upperneck -33.5444 -19.1517 31.0238
head -5.50458 -10.1979 14.2443
rclavicle -7.97623e-015 -9.54166e-015
rhumerus -16.105 -21.0541 -49.0414
rradius 81.5614
rwrist -15.0997
rhand -20.6335 19.9464
rfingers 7.12502
rthumb 5.72823 -9.95618
lclavicle -7.97623e-015 -9.54166e-015
lhumerus -50.796 36.557 43.4487
lradius 40.3142
lwrist 4.18871
lhand -21.2113 12.1326
lfingers 7.12502
lthumb 5.17036 42.0495
rfemur -12.2573 -3.19214 25.6521
rtibia 43.008
rfoot -28.8407 -4.92583
rtoes -14.6396
lfemur -7.92618 -0.265645 -1.23702
ltibia 39.9944
lfoot -25.0127 8.4143
ltoes -11.8914
474
root 0.0134956 16.8637 -6.39715 -79.0468 79.6822 -79.4563
lowerback 5.00391 -0.172745 0.825912
upperback -0.563493 -0.19894 -0.622656
thorax -3.39195 -0.119585 -1.08945
lowerneck 7.05652 -17.5252 -17.9924
upperneck -33.6981 -19.1922 31.0919
head -5.50865 -10.2208 14.2363
rclavicle -1.83876e-015 -2.54444e-014
rhumerus -15.5964 -21.8825 -49.7338
rradius 78.6675
rwrist -20.2828
rhand -19.6806 20.0267
rfingers 7.12502
rthumb 6.64818 -9.84898
lclavicle -1.83876e-015 -2.54444e-014
lhumerus -51.9106 37.82 44.5034
lradius 38.1435
lwrist 0.937475
lhand -20.3707 11.0722
lfingers 7.12502
lthumb 5.98189 40.9678
rfemur -12.4111 -3.70865 25.6452
rtibia 42.572
rfoot -28.7527 -5.1453
rtoes -15.2622
lfemur -7.9123 -0.544131 -1.20345
ltibia 39.1941
lfoot -24.5308 8.49475
ltoes -11.6293
475
root -0.0149674 16.8975 -6.35437 -78.9373 79.7298 -79.5878
lowerback 5.00347 -0.142551 0.978068
upperback -0.561408 -0.146057 -0.515378
thorax -3.38834 -0.0952374 -1.06847
lowerneck 6.85775 -17.6067 -17.825
upperneck -33.8784 -19.1991 31.1099
head -5.54541 -10.2266 14.2143
rclavicle 9.44227e-016 3.18055e-014
rhumerus -14.7969 -22.5526 -50.1275
rradius 76.1258
rwrist -25.493
rhand -19.2702 20.2705
rfingers 7.12502
rthumb 7.04437 -9.59223
lclavicle 9.44227e-016 3.18055e-014
lhumerus -52.8127 39.0384 45.5187
lradius 36.1911
lwrist -1.0591
lhand -20.3247 10.1447
lfingers 7.12502
lthumb 6.02636 40.039
rfemur -12.5598 -4.19771 25.6518
rtibia 42.1704
rfoot -28.5783 -5.71532
rtoes -15.1185
lfemur -7.9081 -0.854455 -1.16395
ltibia 38.4742
lfoot -24.0713 8.64401
ltoes -11.3896
